<?xml version="1.0" encoding="utf-8"?>
<!-- Generator: Adobe Illustrator 22.0.1, SVG Export Plug-In . SVG Version: 6.00 Build 0)  -->
<svg version="1.1" id="Capa_1" xmlns="http://www.w3.org/2000/svg" xmlns:xlink="http://www.w3.org/1999/xlink" x="0px" y="0px"
	 viewBox="0 0 74 57" style="enable-background:new 0 0 74 57;" xml:space="preserve">
<style type="text/css">
	.st0{fill:#1D1D1B;}
	.st1{fill:#C6C6C5;}
	.st2{fill:#FFFFFF;}
	.st3{fill:#E20613;}
</style>
<g>
	<path class="st2" d="M9.9,35.7c-3,0-5.4,1-7.2,2.9c-1.8,2-2.7,4.5-2.7,7.7c0,3.2,0.9,5.7,2.7,7.7C4.6,56,7,57,9.9,57
		c3,0,5.4-1,7.2-2.9c1.8-2,2.7-4.5,2.7-7.7c0-3.2-0.9-5.8-2.7-7.7C15.3,36.6,12.9,35.7,9.9,35.7z M12.2,49.3
		c-0.6,0.8-1.4,1.1-2.3,1.1c-0.9,0-1.7-0.4-2.4-1.1c-0.6-0.8-0.9-1.7-0.9-2.9c0-1.2,0.3-2.2,0.9-3c0.6-0.8,1.4-1.2,2.4-1.2
		c0.9,0,1.7,0.4,2.3,1.1c0.6,0.8,0.9,1.7,0.9,3C13.1,47.5,12.8,48.5,12.2,49.3z"/>
	<polygon class="st2" points="66.9,51 66.9,49.1 72.3,49.1 72.3,43.5 66.9,43.5 66.9,41.4 72.8,41.4 72.8,35.7 60,35.7 60,57 73,57 
		73,51 	"/>
	<path class="st2" d="M51.7,35.7l-0.1-0.3h0.7V4.1H20.6v31.3h12.8l0.5,1.8v9.3l-5.9-10.8h-6.8V57H28l0-10.4L33.7,57h6.9V40.1
		l1.2-0.3V57h6.9v-6.4h3.6c1.9,0,3.4-0.7,4.5-2c1.1-1.3,1.7-3.1,1.7-5.3c0-2.2-0.7-4.1-2.1-5.5C55.3,36.5,53.7,35.8,51.7,35.7z
		 M47.6,7.9c0,0-0.5-1.3-1.3-2.5H51v27.4l-4.8-18.5C47,13.1,48.5,10.3,47.6,7.9z M22.2,5.5h21.4c0.8,0.9,1.9,2.5,1.9,3.8
		c0,0.7-0.1,1.3-0.3,1.6l-3.7,0.9c-0.2-0.8-0.3-1.2-0.3-1.2l-1.9,0.6l3,11.9c0,0,0.5,1.7-0.6,2c0,0-1,0.2-1.3-0.7
		c-0.3-0.9-2.2-9-2.2-9l-2.2,0.6l1.6,6.9c0,0,0.6,2-0.8,2.5c0,0-1.7,0.6-2.1-1.4c-0.5-1.9-1.9-7.4-1.9-7.4l-2.3,0.6l0.7,2.6
		c0,0,0.6,2-0.7,2.5c-1.3,0.5-2-0.4-2.1-0.9c-0.2-0.6-0.9-3.6-0.9-3.6l-2,0.4l0.7,3.3c0,0,0.4,1.2-0.5,1.4c-0.9,0.2-1.2-0.7-1.3-1.1
		c-0.1-0.3-1.4-4.2-1.7-5.6c-0.2-1.5-1-6.4-1-7.4C22.1,8.1,22,6.9,22.2,5.5z M22,34V18.7c0.1,0.5,0.2,1,0.4,1.5
		c0.8,2.9,1,5.5,3.5,5.1c0,0,1.6-0.2,1.9-1.2c0,0,1.3,0.8,2.6,0.6l2.6,9.3H22z M36.1,39.7l-4.3-15.5l-0.4,0.1
		c1.1-0.5,1.5-1.3,1.5-1.3s0.7,2.8,1.1,3.5c0.3,0.7,1.8,1.2,2.9,0.9c1.1-0.3,2.4-1.9,2.4-1.9s1.3,1.8,3.5,1c0,0,2.2-1,1.9-2.5
		c-0.2-1.1-1.8-7.6-2.7-11.1l0.1,0.2l2.4-0.6l6.1,23.6L36.1,39.7z M51.4,44.6c-0.3,0.4-0.8,0.6-1.4,0.6h-1.3v-3.8h1.6
		c0.5,0,0.8,0.2,1.2,0.5c0.3,0.3,0.5,0.7,0.5,1.2C52,43.7,51.8,44.2,51.4,44.6z"/>
</g>
</svg>
